<?xml version="1.0" encoding="utf-8"?>
<!-- Generator: Adobe Illustrator 21.1.0, SVG Export Plug-In . SVG Version: 6.00 Build 0)  -->
<svg version="1.1" id="Layer_1" xmlns="http://www.w3.org/2000/svg" xmlns:xlink="http://www.w3.org/1999/xlink" x="0px" y="0px"
	 viewBox="0 0 600 600" style="enable-background:new 0 0 600 600;" xml:space="preserve">
<style type="text/css">
	.st0{fill:#0D4972;}
	.st1{fill:#2AA9E1;}
	.st2{fill:#198BCA;}
	.st3{fill:#0B79B7;}
	.st4{fill:#0D6394;}
	.st5{fill:none;}
	.st6{fill:#139DD9;}
	.st7{fill:#9CD6EF;}
	.st8{fill:#26B2E3;}
	.st9{fill:#66C6EB;}
</style>
<g id="Logo">
	<g>
		<path class="st0" d="M162.7,460.1h10.7v47.6h-10.7v-20.2h-18v20.2H134v-47.6h10.7v18.2h18V460.1z"/>
		<path class="st0" d="M184.5,507.7v-47.6h32.1v9h-21.4v9.3h19v8.8h-19v11.5h23v9L184.5,507.7L184.5,507.7z"/>
		<path class="st0" d="M254.8,507.7c-1.3-2.7-2.8-5.3-4.4-8.1c-1.6-2.7-3.4-5-5.5-6.9c-0.6,0.7-1.5,1.7-2.4,3c-1,1.3-2,2.6-3,4
			c-1,1.4-1.9,2.9-2.8,4.4c-0.9,1.5-1.5,2.7-1.9,3.6h-12.2c2-3.7,4.4-7.6,7.1-11.5c2.7-4,5.8-8.2,9.1-12.6l-15.5-23.5h13l9.1,13.8
			l9.3-13.8h12.2l-15.5,23c4.1,5.1,7.4,9.7,10,14c2.6,4.2,4.7,7.8,6.2,10.7L254.8,507.7L254.8,507.7z"/>
		<path class="st0" d="M308.2,507.7c-0.5-1.7-1.1-3.4-1.7-5.1c-0.6-1.7-1.2-3.5-1.8-5.2h-18.6c-0.6,1.7-1.2,3.5-1.8,5.2
			c-0.6,1.7-1.2,3.4-1.7,5.1h-11.1c1.8-5.1,3.5-9.9,5.1-14.2c1.6-4.3,3.2-8.4,4.7-12.3c1.6-3.9,3-7.5,4.5-10.9
			c1.5-3.5,3-6.8,4.7-10.1h10.2c1.6,3.3,3.1,6.7,4.6,10.1c1.5,3.5,3,7.1,4.6,10.9c1.6,3.8,3.1,7.9,4.7,12.3
			c1.6,4.3,3.3,9.1,5.1,14.2H308.2z M295.4,470.9c-0.3,0.7-0.6,1.6-1,2.8c-0.5,1.2-1,2.6-1.6,4.1s-1.2,3.3-2,5.1
			c-0.7,1.9-1.5,3.8-2.2,5.9h13.6c-0.7-2.1-1.4-4-2.1-5.9c-0.7-1.9-1.3-3.6-1.9-5.2c-0.6-1.6-1.1-2.9-1.6-4.1
			C296,472.5,295.6,471.6,295.4,470.9z"/>
		<path class="st0" d="M347.3,468.4c-5,0-8.6,1.4-10.8,4.2c-2.2,2.8-3.3,6.6-3.3,11.4c0,2.3,0.3,4.4,0.8,6.3
			c0.5,1.9,1.4,3.5,2.5,4.9c1.1,1.4,2.5,2.4,4.1,3.2c1.7,0.8,3.6,1.1,5.8,1.1c1.2,0,2.2,0,3-0.1c0.9,0,1.6-0.1,2.2-0.3v-16.6h10.7
			v23.6c-1.3,0.5-3.3,1-6.2,1.6c-2.9,0.6-6.3,0.9-10.5,0.9c-3.6,0-6.8-0.5-9.7-1.7c-2.9-1.1-5.4-2.7-7.5-4.8
			c-2.1-2.1-3.6-4.7-4.8-7.8c-1.1-3.1-1.7-6.6-1.7-10.5c0-4,0.6-7.5,1.8-10.6c1.2-3.1,2.9-5.7,5.1-7.8c2.2-2.1,4.7-3.7,7.6-4.9
			c2.9-1.1,6-1.7,9.3-1.7c2.3,0,4.3,0.2,6.1,0.4c1.8,0.3,3.4,0.6,4.7,1c1.3,0.4,2.4,0.8,3.2,1.2c0.9,0.4,1.5,0.7,1.8,1l-3.1,8.6
			c-1.5-0.8-3.1-1.5-5-2C351.7,468.7,349.6,468.4,347.3,468.4z"/>
		<path class="st0" d="M417.7,483.9c0,4.1-0.6,7.6-1.8,10.8c-1.2,3.1-2.9,5.7-5,7.8s-4.6,3.6-7.5,4.7s-6,1.6-9.4,1.6
			c-3.3,0-6.3-0.5-9.2-1.6s-5.4-2.6-7.6-4.7c-2.2-2.1-3.8-4.7-5.1-7.8c-1.2-3.1-1.8-6.7-1.8-10.8c0-4.1,0.6-7.6,1.9-10.8
			c1.3-3.1,3-5.7,5.2-7.8c2.2-2.1,4.7-3.7,7.6-4.7c2.9-1,5.9-1.6,9-1.6c3.2,0,6.3,0.5,9.2,1.6s5.4,2.6,7.6,4.7
			c2.2,2.1,3.8,4.7,5.1,7.8C417.1,476.2,417.7,479.8,417.7,483.9z M381.3,483.9c0,2.3,0.3,4.4,0.9,6.3c0.6,1.9,1.4,3.5,2.5,4.9
			s2.4,2.4,3.9,3.1c1.6,0.7,3.3,1.1,5.4,1.1c2,0,3.7-0.4,5.3-1.1c1.6-0.7,2.9-1.8,4-3.1c1.1-1.4,1.9-3,2.5-4.9
			c0.6-1.9,0.9-4,0.9-6.3c0-2.3-0.3-4.4-0.9-6.3c-0.6-1.9-1.4-3.5-2.5-4.9c-1.1-1.4-2.4-2.4-4-3.1c-1.6-0.7-3.4-1.1-5.3-1.1
			c-2,0-3.8,0.4-5.4,1.1c-1.6,0.8-2.9,1.8-3.9,3.2c-1.1,1.4-1.9,3-2.5,4.9C381.6,479.5,381.3,481.6,381.3,483.9z"/>
		<path class="st0" d="M458.6,507.7c-3.1-5.5-6.4-10.8-10-16.2c-3.6-5.3-7.4-10.3-11.4-15v31.2h-10.6v-47.6h8.7
			c1.5,1.5,3.2,3.4,5,5.6s3.7,4.5,5.6,7c1.9,2.5,3.8,5.1,5.7,7.8c1.9,2.7,3.6,5.3,5.3,7.7v-28.1h10.7v47.6L458.6,507.7L458.6,507.7z
			"/>
	</g>
	<g>
		<path class="st1" d="M144.8,539.7c0.4,0,0.7,0,0.9-0.1c0.3-0.1,0.4-0.2,0.6-0.3c0.2-0.1,0.3-0.2,0.3-0.4c0.1-0.2,0.1-0.3,0.1-0.5
			c0-0.4-0.2-0.7-0.5-1c-0.3-0.3-1-0.5-1.8-0.8c-0.4-0.1-0.8-0.3-1.1-0.4c-0.4-0.2-0.7-0.4-1-0.6c-0.3-0.3-0.5-0.6-0.7-1
			c-0.2-0.4-0.3-0.8-0.3-1.4s0.1-1,0.3-1.4c0.2-0.4,0.5-0.8,0.9-1.1c0.4-0.3,0.8-0.5,1.3-0.7c0.5-0.2,1.1-0.3,1.8-0.3
			c0.8,0,1.5,0.1,2,0.3c0.6,0.2,1,0.3,1.4,0.5l-0.8,2.1c-0.3-0.2-0.7-0.3-1.1-0.4c-0.4-0.1-0.9-0.2-1.4-0.2c-0.6,0-1.1,0.1-1.3,0.3
			c-0.3,0.2-0.4,0.4-0.4,0.8c0,0.2,0.1,0.4,0.2,0.5c0.1,0.2,0.3,0.3,0.4,0.4c0.2,0.1,0.4,0.2,0.6,0.3c0.3,0.1,0.5,0.2,0.8,0.3
			c0.6,0.2,1.1,0.4,1.6,0.7c0.4,0.2,0.8,0.5,1.1,0.8c0.3,0.3,0.5,0.6,0.7,1c0.2,0.4,0.2,0.9,0.2,1.4c0,1.1-0.4,1.9-1.1,2.5
			c-0.8,0.6-1.9,0.9-3.4,0.9c-0.5,0-1,0-1.4-0.1c-0.4-0.1-0.8-0.1-1.1-0.2c-0.3-0.1-0.6-0.2-0.8-0.3c-0.2-0.1-0.4-0.2-0.6-0.3
			l0.7-2.1c0.3,0.2,0.8,0.3,1.3,0.5C143.5,539.7,144.1,539.7,144.8,539.7z"/>
		<path class="st1" d="M171.1,539.5v2.2h-7.7v-11.6h2.6v9.3H171.1z"/>
		<path class="st1" d="M195.8,535.9c0,1-0.2,1.9-0.4,2.6c-0.3,0.8-0.7,1.4-1.2,1.9c-0.5,0.5-1.1,0.9-1.8,1.1
			c-0.7,0.3-1.5,0.4-2.3,0.4c-0.8,0-1.5-0.1-2.2-0.4c-0.7-0.3-1.3-0.6-1.8-1.1c-0.5-0.5-0.9-1.1-1.2-1.9c-0.3-0.8-0.4-1.6-0.4-2.6
			c0-1,0.2-1.9,0.5-2.6c0.3-0.8,0.7-1.4,1.3-1.9c0.5-0.5,1.1-0.9,1.8-1.1c0.7-0.3,1.4-0.4,2.2-0.4c0.8,0,1.5,0.1,2.2,0.4
			s1.3,0.6,1.8,1.1c0.5,0.5,0.9,1.1,1.2,1.9C195.6,534.1,195.8,535,195.8,535.9z M186.9,535.9c0,0.6,0.1,1.1,0.2,1.5
			c0.1,0.4,0.3,0.9,0.6,1.2c0.3,0.3,0.6,0.6,1,0.8c0.4,0.2,0.8,0.3,1.3,0.3s0.9-0.1,1.3-0.3c0.4-0.2,0.7-0.4,1-0.8
			c0.3-0.3,0.5-0.7,0.6-1.2c0.1-0.4,0.2-1,0.2-1.5c0-0.6-0.1-1.1-0.2-1.6c-0.1-0.5-0.3-0.9-0.6-1.2c-0.3-0.3-0.6-0.6-1-0.8
			s-0.8-0.3-1.3-0.3s-0.9,0.1-1.3,0.3c-0.4,0.2-0.7,0.4-1,0.8c-0.3,0.3-0.5,0.7-0.6,1.2C187,534.9,186.9,535.4,186.9,535.9z"/>
		<path class="st1" d="M215.6,532.2c-1.2,0-2.1,0.3-2.6,1c-0.5,0.7-0.8,1.6-0.8,2.8c0,0.6,0.1,1.1,0.2,1.6s0.3,0.9,0.6,1.2
			c0.3,0.3,0.6,0.6,1,0.8c0.4,0.2,0.9,0.3,1.4,0.3c0.3,0,0.5,0,0.7,0c0.2,0,0.4,0,0.5-0.1v-4h2.6v5.7c-0.3,0.1-0.8,0.3-1.5,0.4
			c-0.7,0.1-1.6,0.2-2.5,0.2c-0.9,0-1.7-0.1-2.3-0.4c-0.7-0.3-1.3-0.7-1.8-1.2c-0.5-0.5-0.9-1.1-1.2-1.9c-0.3-0.7-0.4-1.6-0.4-2.5
			c0-1,0.2-1.8,0.4-2.6c0.3-0.7,0.7-1.4,1.2-1.9c0.5-0.5,1.1-0.9,1.8-1.2c0.7-0.3,1.5-0.4,2.3-0.4c0.5,0,1,0,1.5,0.1
			c0.4,0.1,0.8,0.2,1.1,0.3c0.3,0.1,0.6,0.2,0.8,0.3c0.2,0.1,0.3,0.2,0.4,0.2l-0.8,2.1c-0.3-0.2-0.8-0.3-1.2-0.5
			C216.6,532.2,216.1,532.2,215.6,532.2z"/>
		<path class="st1" d="M241.4,541.7c-0.1-0.4-0.3-0.8-0.4-1.2s-0.3-0.9-0.4-1.3H236c-0.2,0.4-0.3,0.9-0.4,1.3
			c-0.2,0.4-0.3,0.8-0.4,1.2h-2.7c0.4-1.2,0.9-2.4,1.2-3.5c0.4-1,0.8-2.1,1.1-3s0.7-1.8,1.1-2.7c0.3-0.8,0.7-1.7,1.1-2.5h2.5
			c0.4,0.8,0.8,1.6,1.1,2.5c0.4,0.8,0.7,1.7,1.1,2.7c0.4,0.9,0.8,1.9,1.1,3s0.8,2.2,1.2,3.5H241.4z M238.3,532.8
			c-0.1,0.2-0.2,0.4-0.3,0.7c-0.1,0.3-0.3,0.6-0.4,1c-0.2,0.4-0.3,0.8-0.5,1.2c-0.2,0.4-0.3,0.9-0.5,1.4h3.3c-0.2-0.5-0.3-1-0.5-1.4
			c-0.2-0.4-0.3-0.9-0.5-1.2c-0.2-0.4-0.3-0.7-0.4-1C238.4,533.2,238.3,533,238.3,532.8z"/>
		<path class="st1" d="M265.4,541.7c-0.7-1.3-1.6-2.6-2.4-3.9c-0.9-1.3-1.8-2.5-2.8-3.6v7.6h-2.6v-11.6h2.1c0.4,0.4,0.8,0.8,1.2,1.4
			c0.4,0.5,0.9,1.1,1.4,1.7c0.5,0.6,0.9,1.2,1.4,1.9c0.4,0.6,0.9,1.3,1.3,1.9v-6.8h2.6v11.6H265.4z"/>
		<path class="st1" d="M291.9,532.2c-1.2,0-2.1,0.3-2.6,1c-0.5,0.7-0.8,1.6-0.8,2.8c0,0.6,0.1,1.1,0.2,1.6c0.1,0.5,0.3,0.9,0.6,1.2
			c0.3,0.3,0.6,0.6,1,0.8c0.4,0.2,0.9,0.3,1.4,0.3c0.3,0,0.5,0,0.7,0c0.2,0,0.4,0,0.5-0.1v-4h2.6v5.7c-0.3,0.1-0.8,0.3-1.5,0.4
			c-0.7,0.1-1.6,0.2-2.5,0.2c-0.9,0-1.7-0.1-2.3-0.4c-0.7-0.3-1.3-0.7-1.8-1.2c-0.5-0.5-0.9-1.1-1.2-1.9c-0.3-0.7-0.4-1.6-0.4-2.5
			c0-1,0.2-1.8,0.4-2.6c0.3-0.7,0.7-1.4,1.2-1.9c0.5-0.5,1.1-0.9,1.8-1.2c0.7-0.3,1.5-0.4,2.3-0.4c0.5,0,1,0,1.5,0.1
			c0.4,0.1,0.8,0.2,1.1,0.3s0.6,0.2,0.8,0.3c0.2,0.1,0.3,0.2,0.4,0.2l-0.8,2.1c-0.3-0.2-0.8-0.3-1.2-0.5
			C293,532.2,292.5,532.2,291.9,532.2z"/>
		<path class="st1" d="M321,535.9c0,1-0.2,1.9-0.4,2.6c-0.3,0.8-0.7,1.4-1.2,1.9c-0.5,0.5-1.1,0.9-1.8,1.1c-0.7,0.3-1.5,0.4-2.3,0.4
			c-0.8,0-1.5-0.1-2.2-0.4c-0.7-0.3-1.3-0.6-1.8-1.1c-0.5-0.5-0.9-1.1-1.2-1.9c-0.3-0.8-0.4-1.6-0.4-2.6c0-1,0.2-1.9,0.5-2.6
			c0.3-0.8,0.7-1.4,1.3-1.9c0.5-0.5,1.1-0.9,1.8-1.1c0.7-0.3,1.4-0.4,2.2-0.4c0.8,0,1.5,0.1,2.2,0.4s1.3,0.6,1.8,1.1
			c0.5,0.5,0.9,1.1,1.2,1.9C320.8,534.1,321,535,321,535.9z M312.2,535.9c0,0.6,0.1,1.1,0.2,1.5c0.2,0.4,0.3,0.9,0.6,1.2
			c0.3,0.3,0.6,0.6,1,0.8c0.4,0.2,0.8,0.3,1.3,0.3c0.5,0,0.9-0.1,1.3-0.3c0.4-0.2,0.7-0.4,1-0.8c0.3-0.3,0.5-0.7,0.6-1.2
			c0.1-0.4,0.2-1,0.2-1.5c0-0.6-0.1-1.1-0.2-1.6c-0.1-0.5-0.3-0.9-0.6-1.2c-0.3-0.3-0.6-0.6-1-0.8c-0.4-0.2-0.8-0.3-1.3-0.3
			c-0.5,0-0.9,0.1-1.3,0.3c-0.4,0.2-0.7,0.4-1,0.8c-0.3,0.3-0.5,0.7-0.6,1.2C312.2,534.9,312.2,535.4,312.2,535.9z"/>
		<path class="st1" d="M335.2,541.7v-11.6h7.8v2.2h-5.2v2.3h4.6v2.1h-4.6v2.8h5.6v2.2H335.2z"/>
		<path class="st1" d="M360.4,539.7c0.4,0,0.7,0,0.9-0.1c0.3-0.1,0.4-0.2,0.6-0.3c0.2-0.1,0.3-0.2,0.3-0.4c0.1-0.2,0.1-0.3,0.1-0.5
			c0-0.4-0.2-0.7-0.5-1c-0.3-0.3-1-0.5-1.8-0.8c-0.4-0.1-0.8-0.3-1.1-0.4c-0.4-0.2-0.7-0.4-1-0.6c-0.3-0.3-0.5-0.6-0.7-1
			s-0.3-0.8-0.3-1.4s0.1-1,0.3-1.4s0.5-0.8,0.9-1.1c0.4-0.3,0.8-0.5,1.3-0.7c0.5-0.2,1.1-0.3,1.8-0.3c0.8,0,1.5,0.1,2,0.3
			c0.6,0.2,1,0.3,1.4,0.5l-0.8,2.1c-0.3-0.2-0.7-0.3-1.1-0.4c-0.4-0.1-0.9-0.2-1.4-0.2c-0.6,0-1.1,0.1-1.3,0.3
			c-0.3,0.2-0.4,0.4-0.4,0.8c0,0.2,0.1,0.4,0.2,0.5c0.1,0.2,0.3,0.3,0.4,0.4s0.4,0.2,0.6,0.3c0.3,0.1,0.5,0.2,0.8,0.3
			c0.6,0.2,1.1,0.4,1.6,0.7c0.4,0.2,0.8,0.5,1.1,0.8c0.3,0.3,0.5,0.6,0.7,1s0.2,0.9,0.2,1.4c0,1.1-0.4,1.9-1.1,2.5
			c-0.8,0.6-1.9,0.9-3.4,0.9c-0.5,0-1,0-1.4-0.1c-0.4-0.1-0.8-0.1-1.1-0.2c-0.3-0.1-0.6-0.2-0.8-0.3c-0.2-0.1-0.4-0.2-0.6-0.3
			l0.7-2.1c0.3,0.2,0.8,0.3,1.3,0.5C359.1,539.7,359.7,539.7,360.4,539.7z"/>
		<path class="st1" d="M390,530.2h2.6v11.6H390v-4.9h-4.4v4.9H383v-11.6h2.6v4.4h4.4V530.2z"/>
		<path class="st1" d="M407.3,541.7v-11.6h7.8v2.2h-5.2v2.3h4.6v2.1h-4.6v2.8h5.6v2.2H407.3z"/>
		<path class="st1" d="M432.7,530c1.7,0,3.1,0.3,4,0.9s1.4,1.6,1.4,2.9c0,0.8-0.2,1.5-0.6,2c-0.4,0.5-0.9,0.9-1.6,1.2
			c0.2,0.3,0.5,0.6,0.7,1c0.3,0.3,0.5,0.8,0.8,1.2s0.5,0.8,0.7,1.3c0.2,0.4,0.4,0.9,0.6,1.3h-2.9c-0.2-0.4-0.4-0.8-0.6-1.1
			c-0.2-0.4-0.4-0.8-0.7-1.1c-0.2-0.4-0.4-0.7-0.7-1c-0.2-0.3-0.4-0.6-0.7-0.9H432v4.2h-2.6v-11.4c0.6-0.1,1.1-0.2,1.7-0.2
			C431.7,530.1,432.3,530,432.7,530z M432.9,532.3c-0.2,0-0.3,0-0.5,0c-0.2,0-0.3,0-0.4,0v3.1h0.7c1,0,1.7-0.1,2.1-0.4
			c0.4-0.3,0.6-0.7,0.6-1.2c0-0.6-0.2-1-0.6-1.2C434.4,532.4,433.7,532.3,432.9,532.3z"/>
		<path class="st1" d="M452.5,541.7v-11.6h7.8v2.2h-5.2v2.3h4.6v2.1h-4.6v2.8h5.6v2.2H452.5z"/>
	</g>
	<g>
		<polygon class="st2" points="138.1,139.5 138.1,233.5 199.8,175.2 		"/>
		<polygon class="st3" points="199.8,175.2 138.1,233.5 199.8,233.5 		"/>
		<polygon class="st4" points="138.1,233.5 199.8,291.8 199.8,233.5 		"/>
		<polygon class="st0" points="138.1,327.4 199.8,291.8 138.1,233.5 		"/>
		<path class="st5" d="M219.5,92.6L219.5,92.6L219.5,92.6z"/>
		<polygon class="st6" points="138.1,139.5 199.8,175.2 219.5,92.6 		"/>
		<polygon class="st7" points="219.5,92.6 300.8,116.9 300.8,45.6 		"/>
		<path class="st5" d="M383.9,93.6L383.9,93.6L383.9,93.6z"/>
		<polygon class="st0" points="300.8,45.6 300.8,116.9 383.9,93.6 		"/>
		<polygon class="st2" points="383.9,93.6 401.8,175.2 463.5,139.5 		"/>
		<polygon class="st6" points="401.8,175.2 463.5,233.5 463.5,139.5 		"/>
		<polygon class="st7" points="463.5,327.4 463.5,233.5 401.8,291.8 		"/>
		<polygon class="st8" points="199.8,175.2 250.3,146 219.5,92.6 		"/>
		<polygon class="st9" points="219.5,92.6 250.3,146 300.8,116.9 		"/>
		<path class="st5" d="M383.9,373.3L383.9,373.3L383.9,373.3z"/>
		<polygon class="st4" points="300.8,421.3 383.9,373.3 300.8,350 		"/>
		<polygon class="st1" points="463.5,327.4 401.8,291.8 383.9,373.3 		"/>
		<polygon class="st2" points="351.3,320.9 383.9,373.3 401.8,291.8 		"/>
		<polygon class="st0" points="300.8,350 383.9,373.3 383.9,373.3 351.3,320.9 		"/>
		<path class="st5" d="M219.5,374.4L219.5,374.4L219.5,374.4z"/>
		<polygon class="st3" points="300.8,350 219.5,374.4 300.8,421.3 		"/>
		<polygon class="st9" points="138.1,327.4 219.5,374.4 199.8,291.8 		"/>
		<polygon class="st6" points="199.8,291.8 219.5,374.4 250.3,320.9 		"/>
		<polygon class="st2" points="250.3,320.9 219.5,374.4 300.8,350 		"/>
		<polygon class="st8" points="401.8,175.2 401.8,233.5 463.5,233.5 		"/>
		<polygon class="st9" points="463.5,233.5 401.8,233.5 401.8,291.8 		"/>
		<polygon class="st4" points="383.9,93.6 300.8,116.9 351.3,146 		"/>
		<polygon class="st3" points="383.9,93.6 351.3,146 401.8,175.2 		"/>
	</g>
</g>
</svg>
